<?xml version="1.0" encoding="UTF-8" standalone="no"?>
<!-- Created with Inkscape (http://www.inkscape.org/) -->

<svg
   width="457.11035mm"
   height="457.11032mm"
   viewBox="0 0 457.11035 457.11032"
   version="1.1"
   id="svg25427"
   inkscape:version="1.2.2 (732a01da63, 2022-12-09)"
   sodipodi:docname="Logo fleetytrack_BGW75.svg"
   xmlns:inkscape="http://www.inkscape.org/namespaces/inkscape"
   xmlns:sodipodi="http://sodipodi.sourceforge.net/DTD/sodipodi-0.dtd"
   xmlns="http://www.w3.org/2000/svg"
   xmlns:svg="http://www.w3.org/2000/svg">
  <sodipodi:namedview
     id="namedview25429"
     pagecolor="#ffffff"
     bordercolor="#000000"
     borderopacity="0.25"
     inkscape:showpageshadow="2"
     inkscape:pageopacity="0"
     inkscape:pagecheckerboard="true"
     inkscape:deskcolor="#d1d1d1"
     inkscape:document-units="mm"
     showgrid="false"
     inkscape:zoom="0.36925856"
     inkscape:cx="1099.5006"
     inkscape:cy="882.85022"
     inkscape:window-width="1920"
     inkscape:window-height="1009"
     inkscape:window-x="-8"
     inkscape:window-y="-8"
     inkscape:window-maximized="1"
     inkscape:current-layer="layer1" />
  <defs
     id="defs25424">
    <linearGradient
       id="bleu_ycc"
       inkscape:swatch="solid">
      <stop
         style="stop-color:#18469c;stop-opacity:1;"
         offset="0"
         id="stop2177" />
    </linearGradient>
    <linearGradient
       id="rouge_ycc"
       inkscape:swatch="solid"
       gradientTransform="matrix(0.94957616,0,0,0.94957616,-1742.1855,-1747.3688)">
      <stop
         style="stop-color:#ff0000;stop-opacity:1;"
         offset="0"
         id="stop2183" />
    </linearGradient>
  </defs>
  <g
     inkscape:label="Calque 1"
     inkscape:groupmode="layer"
     id="layer1"
     transform="translate(182.69751,147.94599)">
    <rect
       style="fill:#ffffff;stroke-width:10;stroke-linecap:round;-inkscape-stroke:none;stop-color:#000000;opacity:0.75"
       id="rect608"
       width="457.11032"
       height="457.11029"
       x="-182.69725"
       y="-147.94598"
       transform="translate(-9.63125e-5,-6.7854167e-5)"
       inkscape:label="BGW75" />
    <path
       id="path24962"
       style="display:inline;fill:url(#rouge_ycc);fill-opacity:1;stroke:none;stroke-width:8.77178;stroke-linecap:round;stroke-opacity:1;-inkscape-stroke:none;stop-color:#000000"
       d="m 45.857926,-147.94576 v 57.402429 l 9.252204,59.979415 c 1.41471,9.171487 10.11324,17.400254 18.9658,20.143933 10.99297,3.407063 21.30945,8.786942 30.42964,15.906088 2.43803,1.903116 6.33401,2.092069 8.82923,0.26382 l 27.62101,-20.237765 -20.23868,27.621012 c -1.8283,2.495201 -1.63927,6.391229 0.26385,8.829265 7.119,9.120049 12.49899,19.435946 15.90604,30.428726 2.74372,8.852519 10.97252,17.551045 20.14394,18.965818 l 59.97947,9.252187 h 57.4024 L 174.35223,65.174051 a 129.50506,129.50506 0 0 0 -30.702,-69.329057 l 35.71498,-48.743156 -48.74317,35.715036 A 129.50506,129.50506 0 0 0 61.293,-47.885189 Z M -182.69751,80.609168 -82.636472,96.044278 a 129.50506,129.50506 0 0 0 30.701651,69.329062 l -35.714632,48.74317 48.743174,-35.71504 A 129.50506,129.50506 0 0 0 30.42276,209.10352 L 45.857926,309.1641 v -57.40198 l -9.26124,-60.03608 c -1.4148,-9.17149 -10.112716,-17.40318 -18.964051,-20.15073 -10.970859,-3.40548 -21.266905,-8.77623 -30.371569,-15.8798 -2.438554,-1.90253 -6.334976,-2.09117 -8.830195,-0.26291 l -27.670915,20.27449 20.274993,-27.67088 c 1.828301,-2.4952 1.640059,-6.3917 -0.262452,-8.83017 -7.103734,-9.10471 -12.474692,-19.40068 -15.880246,-30.37161 -2.74767,-8.851302 -10.979718,-17.549232 -20.151223,-18.964012 l -60.035608,-9.26125 z" />
    <path
       id="path24966"
       style="display:inline;fill:url(#bleu_ycc);fill-opacity:1;stroke:none;stroke-width:8.77178;stroke-linecap:round;stroke-opacity:1;-inkscape-stroke:none;stop-color:#000000"
       d="m 274.41257,80.609398 h -57.40241 l -59.97938,9.25218 c -9.1715,1.41477 -17.4003,10.11328 -20.14394,18.965822 -3.40704,10.99297 -8.78695,21.30943 -15.90612,30.42963 -1.90312,2.43804 -2.09207,6.33404 -0.26377,8.82926 l 20.23771,27.62102 -27.621,-20.23867 c -2.49522,-1.82829 -6.3912,-1.63931 -8.82923,0.26382 -9.1201,7.11905 -19.43597,12.499 -30.42876,15.90608 -8.85247,2.74373 -17.55101,10.97245 -18.9658,20.14394 l -9.252207,59.97941 v 57.40244 L 61.29283,209.10375 a 129.50506,129.50506 0 0 0 69.32903,-30.70206 l 48.74318,35.71503 -35.71507,-48.74315 A 129.50506,129.50506 0 0 0 174.35206,96.044508 Z M 45.857663,-147.94599 30.422584,-47.884961 a 129.50506,129.50506 0 0 0 -69.329039,30.701607 l -48.743174,-35.714589 35.714983,48.743165 A 129.50506,129.50506 0 0 0 -82.636647,65.17427 L -182.69725,80.609398 h 57.40197 l 60.036133,-9.261259 c 9.171417,-1.414773 17.403114,-10.112694 20.150697,-18.964011 3.405466,-10.970877 8.776248,-21.266888 15.879807,-30.371604 1.90251,-2.438501 2.091191,-6.334941 0.26289,-8.830169 l -20.274466,-27.67088 27.670827,20.274932 c 2.495219,1.828292 6.391729,1.640094 8.830195,-0.262452 9.104751,-7.103699 19.40071,-12.474657 30.371656,-15.880255 8.851248,-2.7476 17.549164,-10.979682 18.963964,-20.151187 l 9.26124,-60.035615 z" />
    <g
       id="g13590"
       inkscape:label="bateau"
       style="display:inline"
       transform="matrix(1.0752665,0,0,1.0752665,-62.331804,-31.191112)">
      <path
         style="opacity:1;fill:url(#bleu_ycc);fill-opacity:1;stroke-width:0.264583"
         d="M 43.025667,75.603239 C 37.779178,103.63861 35.431221,110.43556 29.356271,130.9513 l 35.142172,2.97508 -0.55921,-31.02898 z"
         id="path331"
         sodipodi:nodetypes="ccccc" />
      <path
         style="opacity:1;fill:url(#bleu_ycc);fill-opacity:1;stroke-width:0.264583"
         d="M 87.714788,42.390687 C 94.271826,39.514793 109.74414,23.4673 109.74414,23.4673 l -1.15036,53.83675 z"
         id="path333"
         sodipodi:nodetypes="cccc" />
      <path
         style="display:inline;opacity:1;fill:#ff0000;fill-opacity:1;stroke-width:0.264583"
         d="m 115.19393,75.469202 c 3.91476,17.082486 -1.10676,40.426288 -2.62792,61.767988 12.48051,2.20724 24.28841,1.34132 33.80591,0.0534 -16.8297,-35.23508 -22.40162,-46.444096 -31.17799,-61.821418 z"
         id="path1118"
         sodipodi:nodetypes="cccc" />
      <path
         style="opacity:1;fill:url(#bleu_ycc);fill-opacity:1;stroke-width:0.264583"
         d="m 114.81653,58.486142 c 7.87747,19.158193 12.10229,43.445498 12.46813,65.353298 12.48051,2.20724 33.34604,4.36053 46.07146,13.45118 C 151.8089,100.35723 124.7251,72.542559 114.81653,58.486142 Z"
         id="path1062"
         sodipodi:nodetypes="cccc" />
      <path
         style="opacity:1;fill:#ff0000;fill-opacity:1;stroke-width:0.264583"
         d="m 112.74082,26.029627 c 10.51928,16.516384 12.85709,36.463578 11.71333,57.427865 11.1596,4.282952 19.94829,5.304044 32.86241,18.546108 C 145.01567,75.260048 123.97029,41.218248 112.74082,26.029627 Z"
         id="path1050"
         sodipodi:nodetypes="cccc" />
      <path
         style="opacity:1;fill:#ff0000;fill-opacity:1;stroke-width:0.264583"
         d="m 86.223141,41.972775 c -3.741762,31.398236 -10.574539,67.839705 -19.034168,87.849985 5.205925,1.30148 22.775928,3.74176 42.460827,4.39251 1.46417,-19.35954 0.16269,-53.848798 0.16269,-53.848798 z"
         id="path1120"
         sodipodi:nodetypes="ccccc" />
      <path
         id="path1122"
         style="opacity:1;fill:url(#bleu_ycc);fill-opacity:1;stroke:none;stroke-width:0.264583"
         d="m 179.94147,138.83804 -31.95515,1.85932 c -0.0681,-0.47921 -0.14404,-0.95856 -0.23358,-1.43609 -64.587331,5.15595 -114.277979,1.58877 -106.616233,4.71754 1.779013,3.00094 5.244854,5.57993 9.868132,7.8698 5.377963,0.14153 16.044131,0.72581 33.723006,1.02371 5.931235,0.1 12.088572,-0.22516 17.829405,-0.13746 5.62079,0.0859 10.88781,0.47083 15.28692,0.47336 4.95431,0.003 9.90586,-0.31563 14.86007,-0.28525 5.09994,0.0313 15.29261,0.4811 15.29261,0.4811 0,0 0.71783,-5.0655 0.21549,-10.71769 l 31.84457,-1.8526 z" />
    </g>
  </g>
</svg>
