<?xml version="1.0" encoding="UTF-8" standalone="no"?>
<!-- Created with Inkscape (http://www.inkscape.org/) -->

<svg
   width="581.87982mm"
   height="596.01898mm"
   viewBox="0 0 581.87982 596.01898"
   version="1.1"
   id="svg5"
   xml:space="preserve"
   inkscape:version="1.2.2 (732a01da63, 2022-12-09)"
   sodipodi:docname="Logp fleetytrack_txt_V.svg"
   xmlns:inkscape="http://www.inkscape.org/namespaces/inkscape"
   xmlns:sodipodi="http://sodipodi.sourceforge.net/DTD/sodipodi-0.dtd"
   xmlns:xlink="http://www.w3.org/1999/xlink"
   xmlns="http://www.w3.org/2000/svg"
   xmlns:svg="http://www.w3.org/2000/svg"><sodipodi:namedview
     id="namedview7"
     pagecolor="#ffffff"
     bordercolor="#000000"
     borderopacity="0.25"
     inkscape:showpageshadow="2"
     inkscape:pageopacity="0"
     inkscape:pagecheckerboard="true"
     inkscape:deskcolor="#d1d1d1"
     inkscape:document-units="mm"
     showgrid="false"
     inkscape:zoom="0.23326335"
     inkscape:cx="1459.7235"
     inkscape:cy="1114.62"
     inkscape:window-width="1920"
     inkscape:window-height="1009"
     inkscape:window-x="-8"
     inkscape:window-y="-8"
     inkscape:window-maximized="1"
     inkscape:current-layer="layer2"
     showguides="true"><sodipodi:guide
       position="290.93993,323.53052"
       orientation="1,0"
       id="guide13617"
       inkscape:locked="false" /><sodipodi:guide
       position="290.93992,323.53052"
       orientation="0,-1"
       id="guide13619"
       inkscape:locked="false" /></sodipodi:namedview><defs
     id="defs2"><linearGradient
       id="linearGradient2268"><stop
         style="stop-color:#002350;stop-opacity:1;"
         offset="0"
         id="stop2266" /></linearGradient><linearGradient
       id="linearGradient2262"><stop
         style="stop-color:#002350;stop-opacity:1;"
         offset="0"
         id="stop2260" /></linearGradient><linearGradient
       id="linearGradient2256"><stop
         style="stop-color:#002350;stop-opacity:1;"
         offset="0"
         id="stop2254" /></linearGradient><linearGradient
       id="linearGradient2250"><stop
         style="stop-color:#002350;stop-opacity:1;"
         offset="0"
         id="stop2248" /></linearGradient><linearGradient
       id="linearGradient2244"><stop
         style="stop-color:#002350;stop-opacity:1;"
         offset="0"
         id="stop2242" /></linearGradient><linearGradient
       id="linearGradient2191"><stop
         style="stop-color:#002350;stop-opacity:1;"
         offset="0"
         id="stop2189" /></linearGradient><linearGradient
       id="rouge_ycc"
       inkscape:swatch="solid"
       gradientTransform="matrix(0.26896883,0,0,0.26896883,-116.17421,-129.56664)"><stop
         style="stop-color:#ff0000;stop-opacity:1;"
         offset="0"
         id="stop2183" /></linearGradient><linearGradient
       id="bleu_ycc"
       inkscape:swatch="solid"><stop
         style="stop-color:#18469c;stop-opacity:1;"
         offset="0"
         id="stop2177" /></linearGradient><inkscape:path-effect
       effect="fillet_chamfer"
       id="path-effect16393"
       is_visible="true"
       lpeversion="1"
       nodesatellites_param="F,0,0,1,0,0,0,1 @ F,0,0,1,0,0,0,1 @ F,0,0,1,0,0,0,1 @ F,0,1,1,0,5.2916667,0,1 @ F,0,0,1,0,0,0,1 @ F,0,1,1,0,5.2916667,0,1 @ F,0,0,1,0,0,0,1 @ F,0,0,1,0,0,0,1 @ F,0,0,1,0,0,0,1 @ F,0,0,1,0,0,0,1 @ F,0,0,1,0,0,0,1 @ F,0,1,1,0,5.2916667,0,1 @ F,0,0,1,0,0,0,1 @ F,0,1,1,0,5.2916667,0,1 @ F,0,0,1,0,0,0,1 @ F,0,0,1,0,0,0,1 @ F,0,0,1,0,0,0,1 @ F,0,0,1,0,0,0,1 @ F,0,0,1,0,0,0,1 @ F,0,1,1,0,5.2916667,0,1 @ F,0,0,1,0,0,0,1 @ F,0,1,1,0,5.2916667,0,1 @ F,0,0,1,0,0,0,1 @ F,0,0,1,0,0,0,1 @ F,0,0,1,0,0,0,1 @ F,0,0,1,0,0,0,1 @ F,0,0,1,0,0,0,1 @ F,0,1,1,0,5.2916667,0,1 @ F,0,0,1,0,0,0,1 @ F,0,1,1,0,5.2916667,0,1 @ F,0,0,1,0,0,0,1 @ F,0,0,1,0,0,0,1"
       unit="px"
       method="auto"
       mode="F"
       radius="20"
       chamfer_steps="1"
       flexible="false"
       use_knot_distance="true"
       apply_no_radius="true"
       apply_with_radius="true"
       only_selected="true"
       hide_knots="false" /><inkscape:path-effect
       effect="fillet_chamfer"
       id="path-effect16391"
       is_visible="true"
       lpeversion="1"
       nodesatellites_param="F,0,0,1,0,2.1166667,0,1 @ F,0,0,1,0,2.1166667,0,1 @ F,0,0,1,0,2.1166667,0,1 @ F,0,0,1,0,2.1166667,0,1 @ F,0,0,1,0,2.1166667,0,1 @ F,0,0,1,0,2.1166667,0,1 @ F,0,0,1,0,2.1166667,0,1 @ F,0,0,1,0,2.1166667,0,1 @ F,0,0,1,0,2.1166667,0,1 @ F,0,0,1,0,2.1166667,0,1 @ F,0,0,1,0,2.1166667,0,1 @ F,0,0,1,0,2.1166667,0,1 @ F,0,0,1,0,2.1166667,0,1 @ F,0,0,1,0,2.1166667,0,1 @ F,0,0,1,0,2.1166667,0,1 @ F,0,0,1,0,2.1166667,0,1 @ F,0,0,1,0,2.1166667,0,1 @ F,0,0,1,0,2.1166667,0,1 @ F,0,0,1,0,2.1166667,0,1 @ F,0,0,1,0,2.1166667,0,1 @ F,0,0,1,0,2.1166667,0,1 @ F,0,0,1,0,2.1166667,0,1 @ F,0,0,1,0,2.1166667,0,1 @ F,0,0,1,0,2.1166667,0,1 @ F,0,0,1,0,2.1166667,0,1 @ F,0,0,1,0,2.1166667,0,1 @ F,0,0,1,0,2.1166667,0,1 @ F,0,1,1,0,2.1166667,0,1 @ F,0,0,1,0,2.1166667,0,1 @ F,0,1,1,0,2.1166667,0,1 @ F,0,0,1,0,2.1166667,0,1 @ F,0,0,1,0,2.1166667,0,1"
       unit="px"
       method="auto"
       mode="F"
       radius="8"
       chamfer_steps="1"
       flexible="false"
       use_knot_distance="true"
       apply_no_radius="true"
       apply_with_radius="true"
       only_selected="true"
       hide_knots="false" /><inkscape:path-effect
       effect="fillet_chamfer"
       id="path-effect16389"
       is_visible="true"
       lpeversion="1"
       nodesatellites_param="F,0,0,1,0,0,0,1 @ F,0,0,1,0,15.875,0,1 @ F,0,0,1,0,0,0,1 @ F,0,0,1,0,0,0,1 @ F,0,0,1,0,0,0,1 @ F,0,1,1,0,15.875,0,1 @ F,0,0,1,0,0,0,1 @ F,0,1,1,0,15.875,0,1 @ F,0,0,1,0,0,0,1 @ F,0,0,1,0,0,0,1 @ F,0,0,1,0,0,0,1 @ F,0,0,1,0,15.875,0,1 @ F,0,0,1,0,0,0,1 @ F,0,0,1,0,15.875,0,1 @ F,0,0,1,0,0,0,1 @ F,0,0,1,0,0,0,1 @ F,0,0,1,0,0,0,1 @ F,0,0,1,0,15.875,0,1 @ F,0,0,1,0,0,0,1 @ F,0,0,1,0,15.875,0,1 @ F,0,0,1,0,0,0,1 @ F,0,0,1,0,0,0,1 @ F,0,0,1,0,0,0,1 @ F,0,0,1,0,15.875,0,1"
       unit="px"
       method="auto"
       mode="F"
       radius="60"
       chamfer_steps="1"
       flexible="false"
       use_knot_distance="true"
       apply_no_radius="true"
       apply_with_radius="true"
       only_selected="true"
       hide_knots="false" /><inkscape:path-effect
       effect="mirror_symmetry"
       start_point="441.83105,44.779511"
       end_point="342.27848,61.46065"
       center_point="392.05476,53.120081"
       id="path-effect3861"
       is_visible="true"
       lpeversion="1.2"
       lpesatellites=""
       mode="free"
       discard_orig_path="false"
       fuse_paths="false"
       oposite_fuse="false"
       split_items="false"
       split_open="false"
       link_styles="false" /><linearGradient
       inkscape:collect="always"
       xlink:href="#bleu_ycc"
       id="linearGradient2181"
       x1="-17.138"
       y1="90.9991"
       x2="223.52499"
       y2="90.9991"
       gradientUnits="userSpaceOnUse" /><linearGradient
       inkscape:collect="always"
       xlink:href="#rouge_ycc"
       id="linearGradient2187"
       x1="-31.676001"
       y1="89.749001"
       x2="47.27"
       y2="89.749001"
       gradientUnits="userSpaceOnUse" /><linearGradient
       inkscape:collect="always"
       xlink:href="#bleu_ycc"
       id="linearGradient2193"
       x1="-120.25096"
       y1="387.44452"
       x2="106.99409"
       y2="387.44452"
       gradientUnits="userSpaceOnUse"
       gradientTransform="matrix(1.0165751,0,0,1.0165751,59.626915,-23.264975)" /><linearGradient
       inkscape:collect="always"
       xlink:href="#bleu_ycc"
       id="linearGradient2246"
       x1="-131.9505"
       y1="105.14404"
       x2="325.15933"
       y2="105.14404"
       gradientUnits="userSpaceOnUse" /><linearGradient
       inkscape:collect="always"
       xlink:href="#bleu_ycc"
       id="linearGradient2258"
       x1="114.81653"
       y1="97.888382"
       x2="173.35612"
       y2="97.888382"
       gradientUnits="userSpaceOnUse" /></defs><g
     inkscape:groupmode="layer"
     id="layer2"
     inkscape:label="logo"
     style="display:inline"
     transform="translate(194.3355,167.34442)"><g
       aria-label="FLEETYTRACK"
       id="text315"
       style="font-size:57.7417px;display:inline;stroke-width:68.1988;stroke-linecap:round;stop-color:#000000"
       inkscape:label="texte&amp;logo"
       transform="matrix(0.88533087,0,0,0.88533087,9.9486642,42.496549)"><rect
         style="font-size:57.7417px;display:inline;opacity:0.75;fill:#ffffff;fill-opacity:1;stroke-width:10;stroke-linecap:round;-inkscape-stroke:none;stop-color:#000000"
         id="rect2324"
         width="606.83374"
         height="621.57928"
         x="-210.21504"
         y="-169.91614"
         transform="matrix(1.0830736,0,0,1.0830736,-3.0649351,-52.988147)"
         inkscape:label="Fond blanc75" /><path
         id="path1233"
         style="font-style:italic;font-weight:bold;font-family:Rockwell;-inkscape-font-specification:'Rockwell, Bold Italic';text-align:center;text-anchor:middle;fill:url(#linearGradient2193);fill-opacity:1;stroke-width:69.3292"
         d="m -53.932984,350.66732 -1.461997,6.21938 h 5.875815 l -6.27664,27.42905 h -5.359944 l -1.461469,6.2199 h 20.893945 l 1.461992,-6.2199 h -5.446094 l 2.522632,-10.9773 h 8.282876 l 1.461994,-6.21937 h -8.2834 l 2.293065,-10.23238 h 10.862769 l -1.519255,6.70688 h 7.394541 l 2.981247,-12.92626 z m 35.339453,0 -1.461466,6.21938 h 4.757911 l -6.334426,27.42905 h -3.754532 l -1.433101,6.2199 H 5.8264237 L 10.125722,372.04878 H 2.4727182 l -2.80893932,12.26697 H -11.485293 l 6.2766386,-27.42905 h 3.7550577 l 1.46146732,-6.21938 z m 36.400099,0 -1.404207,6.21938 h 3.754533 l -6.333901,27.42905 h -3.755058 l -1.4903606,6.2199 H 41.165881 l 2.92346,-12.49654 h -7.193867 l -1.490359,6.27664 H 23.911424 l 2.522634,-10.9773 h 9.343516 l 1.461467,-6.21937 H 27.895526 L 30.18859,356.8867 h 11.264121 l -1.461993,6.47783 h 7.451803 l 2.952352,-12.69721 z m 37.260064,0 -1.404207,6.21938 h 3.754531 l -6.334426,27.42905 h -3.754531 l -1.490361,6.2199 h 32.588307 l 2.92346,-12.49654 h -7.193867 l -1.490886,6.27664 H 61.171488 l 2.522108,-10.9773 h 9.344041 l 1.461466,-6.21937 h -9.343514 l 2.293065,-10.23238 h 11.263594 l -1.461466,6.47783 h 7.451802 l 2.952353,-12.69721 z m 37.145542,0 -3.58275,15.56342 h 6.391686 l 2.120757,-9.34404 h 6.276643 l -6.276643,27.42905 h -4.586128 l -1.461468,6.2199 h 19.317949 l 1.46146,-6.2199 h -4.58559 l 6.27664,-27.42905 h 6.27715 l -2.14964,9.34404 h 6.39117 l 3.58274,-15.56342 z m 36.686396,0 -1.46147,6.21938 h 3.92632 l 6.73578,16.45175 -2.52211,10.9773 h -3.75506 l -1.46146,6.2199 h 17.97048 l 1.51925,-6.2199 h -4.09863 l 2.57938,-10.9773 14.90414,-16.45175 h 3.75453 l 1.40473,-6.21938 h -16.02204 l -1.46146,6.21938 h 3.29591 l -9.40077,11.06344 -4.04136,-11.06344 h 3.20976 l 1.462,-6.21938 z"
         inkscape:label="fleety" /><path
         id="path1245"
         style="font-style:italic;font-weight:bold;font-family:Rockwell;-inkscape-font-specification:'Rockwell, Bold Italic';text-align:center;text-anchor:middle;fill:url(#rouge_ycc);fill-opacity:1;stroke-width:69.3292"
         d="m 310.52662,350.03692 c -7.24181,0 -13.51853,2.33094 -18.83045,6.99319 -5.29282,4.66227 -7.93931,10.13698 -7.93931,16.42339 0,5.08264 1.83415,9.28634 5.50283,12.61107 3.66867,3.32473 8.31199,4.98695 13.92964,4.98695 3.726,0 7.29909,-0.82158 10.71936,-2.46485 3.42026,-1.66237 6.38232,-4.04115 8.88542,-7.1366 l -6.39169,-4.70064 c -3.87884,4.60494 -8.13043,6.90755 -12.75448,6.90755 -2.71328,0 -4.94898,-0.91733 -6.70688,-2.75166 -1.7388,-1.83435 -2.60826,-4.18484 -2.60826,-7.05099 0,-4.43298 1.61488,-8.33089 4.84407,-11.69384 3.22918,-3.38205 6.97421,-5.07311 11.23523,-5.07311 5.2737,0 8.26406,2.18781 8.97105,6.56347 h 6.39169 l 3.00908,-12.98353 h -6.39116 l -0.88885,3.84068 c -2.46489,-2.98079 -6.12394,-4.47108 -10.97729,-4.47108 z m -141.24384,0.6304 -3.58276,15.56342 h 6.3917 l 2.12075,-9.34404 h 6.27717 l -6.27717,27.42905 h -4.58561 l -1.46199,6.2199 h 19.31796 l 1.46198,-6.2199 h -4.58612 l 6.27717,-27.42905 h 6.27664 l -2.14965,9.34404 h 6.39169 l 3.58274,-15.56342 z m 40.44145,0 -1.4042,6.21938 h 3.92631 l -6.33389,27.42905 h -3.92684 l -1.49037,6.2199 h 17.7987 l 1.51925,-6.2199 h -3.81232 l 2.63716,-11.49317 h 5.58899 l 4.38492,17.71307 h 10.17512 l 1.46146,-6.2199 h -3.98357 l -3.41096,-12.0952 c 2.94257,-0.38214 5.19732,-1.62379 6.76413,-3.72564 1.58595,-2.10184 2.37922,-4.44255 2.37922,-7.02207 0,-2.98079 -1.02235,-5.52227 -3.06687,-7.62411 -2.0254,-2.12097 -4.85362,-3.18141 -8.48408,-3.18141 z m 47.0333,0 -1.4042,6.21938 h 3.86959 l -15.07645,27.42905 h -3.84017 l -1.46199,6.2199 h 15.33385 l 1.462,-6.2199 h -3.69726 l 3.35316,-6.70636 h 12.0952 v 6.70636 H 263.694 l -1.49037,6.2199 h 16.62354 l 1.46147,-6.2199 h -4.0981 l -1.17516,-27.42905 h 3.41043 l 1.40474,-6.21938 z m 77.07113,0 -1.46198,6.21938 h 3.92682 l -6.27715,27.42905 h -3.92631 l -1.49037,6.2199 h 17.79869 l 1.46201,-6.2199 h -3.75506 l 6.33442,-27.42905 h 3.75453 l 1.4042,-6.21938 z m 22.75729,0 -1.462,6.21938 h 4.24205 l -15.50563,12.75447 8.62695,14.67458 h -3.75452 l -1.462,6.2199 h 17.54075 l 1.40475,-6.2199 h -3.75506 l -8.79875,-14.67458 15.44837,-12.75447 h 3.46823 l 1.46146,-6.21938 z m -90.31259,5.87582 h 0.40135 l 0.45861,15.39111 h -8.85653 z m -43.93806,0.34356 h 4.5856 c 1.45219,0 2.60839,0.40154 3.46824,1.20406 0.85985,0.80252 1.28968,1.91085 1.28968,3.32481 0,4.18458 -2.52191,6.27664 -7.56632,6.27664 h -4.29931 z"
         inkscape:label="track" /><g
         transform="matrix(0.44194,0,0,0.44194,-164.28263,330.38535)"
         id="g1954"
         inkscape:label="logoYCC"><path
           d="m -31.676,13.064 v 153.37 L 47.27,89.751 Z m 34.078,61.547 3.9889,12.416 13.041,-0.0434 -10.576,7.6306 4.0706,12.39 -10.525,-7.7003 -10.525,7.7003 4.0706,-12.39 -10.576,-7.6306 13.041,0.0434 z"
           fill="#ff0000"
           id="path1950"
           style="fill:url(#linearGradient2187);fill-opacity:1" /><path
           d="m -17.138,1.4696 80.381,80.381 h 160.28 z m 108.42,46.61 c 3.9824,0 6.9268,1.948 8.2755,4.2225 1.3486,2.2745 1.4159,4.5443 1.4159,5.7149 h -5.5997 c 0,-0.74386 -0.1488,-2.0435 -0.63252,-2.8593 -0.48371,-0.8158 -0.98755,-1.4785 -3.4592,-1.4785 -2.2953,0 -2.9273,0.75073 -3.6463,2.1368 -0.71901,1.3861 -1.0138,3.4993 -1.0625,4.9997 -0.0351,1.0818 0.37845,3.2177 1.2423,4.6896 0.86386,1.472 1.7642,2.2655 3.4664,2.2655 2.1876,0 2.8729,-0.53415 3.3398,-1.1229 0.46694,-0.58878 0.75189,-1.6378 0.75189,-2.8908 h 5.5997 c 0,2.0114 -0.37717,4.3673 -1.9647,6.3691 -1.5876,2.0019 -4.3487,3.2442 -7.7267,3.2442 -3.8632,0 -6.7707,-2.429 -8.2966,-5.0292 -1.5259,-2.6001 -2.0835,-5.3865 -2.0081,-7.707 0.0618,-1.902 0.2944,-4.7104 1.6878,-7.3964 1.3934,-2.686 4.4583,-5.1583 8.617,-5.1583 z m -28.036,52.068 -80.381,80.381 240.66,-80.381 z m 28.036,8.4806 c 3.9824,0 6.9268,1.948 8.2755,4.2225 1.3486,2.2745 1.4159,4.5443 1.4159,5.7149 h -5.5997 c 0,-0.74386 -0.1488,-2.0435 -0.63252,-2.8592 -0.48371,-0.81581 -0.98755,-1.4785 -3.4592,-1.4785 -2.2953,0 -2.9273,0.75073 -3.6463,2.1368 -0.719,1.3861 -1.0138,3.4993 -1.0625,4.9997 -0.0351,1.0818 0.37845,3.2177 1.2423,4.6896 0.86386,1.472 1.7642,2.2655 3.4664,2.2655 2.1876,0 2.8729,-0.53415 3.3398,-1.1229 0.46694,-0.58878 0.75189,-1.6378 0.75189,-2.8908 h 5.5997 c 0,2.0114 -0.37717,4.3693 -1.9647,6.3712 -1.5875,2.0019 -4.3487,3.2422 -7.7267,3.2422 -3.8632,0 -6.7707,-2.429 -8.2966,-5.0292 -1.5259,-2.6001 -2.0835,-5.3865 -2.0081,-7.707 0.0618,-1.9019 0.2944,-4.7104 1.6878,-7.3964 1.3934,-2.686 4.4583,-5.1584 8.617,-5.1584 z"
           fill="#18469c"
           stop-color="#000000"
           style="font-variation-settings:normal;fill:url(#linearGradient2181);fill-opacity:1;-inkscape-stroke:none"
           id="path1952" /></g></g><g
       id="g2396"
       inkscape:label="boussole"
       style="display:inline"><path
         id="path24962"
         style="display:inline;opacity:1;fill:url(#rouge_ycc);fill-opacity:1;stroke:none;stroke-width:8.77178;stroke-linecap:round;stroke-opacity:1;-inkscape-stroke:none;stop-color:#000000"
         d="m 96.604676,-123.41089 v 57.402431 l 9.252204,59.9794149 c 1.41471,9.1714872 10.11324,17.4002541 18.9658,20.1439331 10.99297,3.407063 21.30945,8.786942 30.42964,15.906088 2.43803,1.903116 6.33401,2.092069 8.82923,0.26382 l 27.62101,-20.237765 -20.23868,27.621012 c -1.8283,2.495201 -1.63927,6.391229 0.26385,8.829265 7.119,9.120049 12.49899,19.435946 15.90604,30.428726 2.74372,8.852519 10.97252,17.551045 20.14394,18.965818 l 59.97947,9.252187 h 57.4024 L 225.09898,89.708923 a 129.50506,129.50506 0 0 0 -30.702,-69.329057 L 230.11196,-28.36329 181.36879,7.3517458 A 129.50506,129.50506 0 0 0 112.03975,-23.350317 Z m -228.555436,228.55493 100.061038,15.43511 a 129.50506,129.50506 0 0 0 30.7016511,69.32906 l -35.7146321,48.74317 48.743174,-35.71504 a 129.50506,129.50506 0 0 0 69.329039,30.70205 l 15.435166,100.06058 v -57.40198 l -9.26124,-60.03608 C 85.928636,207.08942 77.23072,198.85773 68.379385,196.11018 57.408526,192.7047 47.11248,187.33395 38.007816,180.23038 35.569262,178.32785 31.67284,178.13921 29.177621,179.96747 L 1.5067061,200.24196 21.781699,172.57108 c 1.828301,-2.4952 1.640059,-6.3917 -0.262452,-8.83017 C 14.415513,154.6362 9.0445552,144.34023 5.6390013,133.3693 2.8913307,124.518 -5.3407169,115.82007 -14.512222,114.40529 l -60.035606,-9.26125 z" /><path
         id="path24966"
         style="display:inline;opacity:1;fill:url(#linearGradient2246);fill-opacity:1;stroke:none;stroke-width:8.77178;stroke-linecap:round;stroke-opacity:1;-inkscape-stroke:none;stop-color:#000000"
         d="m 325.15932,105.14427 h -57.40241 l -59.97938,9.25218 c -9.1715,1.41477 -17.4003,10.11328 -20.14394,18.96582 -3.40704,10.99297 -8.78695,21.30943 -15.90612,30.42963 -1.90312,2.43804 -2.09207,6.33404 -0.26377,8.82926 l 20.23771,27.62102 -27.621,-20.23867 c -2.49522,-1.82829 -6.3912,-1.63931 -8.82923,0.26382 -9.1201,7.11905 -19.43597,12.499 -30.42876,15.90608 -8.85247,2.74373 -17.55101,10.97245 -18.9658,20.14394 l -9.252207,59.97941 V 333.6992 L 112.03958,233.63862 a 129.50506,129.50506 0 0 0 69.32903,-30.70206 l 48.74318,35.71503 -35.71507,-48.74315 a 129.50506,129.50506 0 0 0 30.70209,-69.32906 z M 96.604413,-123.41112 81.169334,-23.350089 A 129.50506,129.50506 0 0 0 11.840295,7.3515177 L -36.902879,-28.363071 -1.1878955,20.380094 A 129.50506,129.50506 0 0 0 -31.889897,89.709142 L -131.9505,105.14427 h 57.40197 l 60.036133,-9.261259 C -5.34098,94.468238 2.8907167,85.770317 5.6382995,76.919 9.0437657,65.948123 14.414548,55.652112 21.518107,46.547396 c 1.90251,-2.438501 2.091191,-6.334941 0.26289,-8.830169 L 1.5065306,10.046347 29.177358,30.321279 c 2.495219,1.828292 6.391729,1.640094 8.830195,-0.262452 9.104751,-7.103699 19.40071,-12.474657 30.371656,-15.880255 8.851248,-2.7476 17.549164,-10.9796825 18.963964,-20.1511872 l 9.26124,-60.0356148 z" /></g><g
       id="g2407"
       inkscape:label="bateau"
       style="display:inline;opacity:1"
       transform="matrix(1.0752665,0,0,1.0752665,-8.1824667,-6.6562391)"
       inkscape:transform-center-x="-7.8004246"
       inkscape:transform-center-y="-15.330687"><path
         id="path331"
         style="opacity:1;fill:url(#bleu_ycc);fill-opacity:1;stroke-width:0.264583"
         d="M 43.025584,75.603115 C 37.7791,103.63846 35.431053,110.43572 29.356109,130.95144 l 35.142319,2.97486 -0.559409,-31.02893 z m 136.915816,63.234835 -31.95504,1.85941 c -0.0681,-0.47921 -0.14402,-0.95848 -0.23356,-1.43601 -64.58727,5.15595 -114.278161,1.58872 -106.616423,4.71749 1.779011,3.00094 5.2452,5.57982 9.868473,7.86969 5.377958,0.14153 16.043793,0.72576 33.72265,1.02366 5.931229,0.1 12.08865,-0.22515 17.82948,-0.13745 5.62078,0.0859 10.88804,0.47086 15.28714,0.47339 4.95431,0.003 9.9057,-0.31537 14.8599,-0.28499 5.09994,0.0313 15.29244,0.48107 15.29244,0.48107 0,0 0.71812,-5.0655 0.21578,-10.71768 l 31.8445,-1.85268 z" /><path
         id="path1118"
         style="display:inline;opacity:1;fill:url(#rouge_ycc);fill-opacity:1;stroke-width:0.264583"
         d="m 86.223102,41.972738 c -3.741758,31.398205 -10.574701,67.839532 -19.034321,87.849792 5.20592,1.30148 22.776372,3.74186 42.461249,4.39261 1.46417,-19.35952 0.16244,-53.848879 0.16244,-53.848879 z M 115.19414,75.46903 c 3.91476,17.082468 -1.1072,40.42639 -2.62836,61.76807 12.4805,2.20724 24.28879,1.34126 33.80628,0.0533 -16.82969,-35.235 -22.40156,-46.444064 -31.17792,-61.82137 z" /><path
         style="opacity:1;fill:url(#linearGradient2258);fill-opacity:1;stroke-width:0.264583"
         d="m 114.81653,58.486142 c 7.87747,19.158193 12.10229,43.445498 12.46813,65.353298 12.48051,2.20724 33.34604,4.36053 46.07146,13.45118 C 151.8089,100.35723 124.7251,72.542559 114.81653,58.486142 Z"
         id="path1062"
         sodipodi:nodetypes="cccc" /><path
         style="opacity:1;fill:url(#rouge_ycc);fill-opacity:1;stroke-width:0.264583"
         d="m 112.74082,26.029627 c 10.51928,16.516384 12.85709,36.463578 11.71333,57.427865 11.1596,4.282952 19.94829,5.304044 32.86241,18.546108 C 145.01567,75.260048 123.97029,41.218248 112.74082,26.029627 Z"
         id="path1050"
         sodipodi:nodetypes="cccc" /></g></g></svg>
